<?xml version="1.0" encoding="utf-8"?>
<svg viewBox="83.163 117.375 255.11 289.322" xmlns="http://www.w3.org/2000/svg">
  <path d="M 210.562 406.697 L 106.38 377.775 L 83.163 117.375 L 338.273 117.375 L 315.032 377.735 L 210.562 406.697 Z" fill="#264DE4" transform="matrix(0.9999999999999999, 0, 0, 0.9999999999999999, -7.105427357601002e-15, -1.4210854715202004e-14)"/>
  <path d="M 295.135 361.156 L 314.996 138.667 L 210.718 138.667 L 210.718 384.559 L 295.135 361.156 Z" fill="#2965F1" transform="matrix(0.9999999999999999, 0, 0, 0.9999999999999999, -7.105427357601002e-15, -1.4210854715202004e-14)"/>
  <path d="M 136.387 235.245 L 139.249 267.182 L 210.718 267.182 L 210.718 235.245 L 136.387 235.245 Z" fill="#EBEBEB" transform="matrix(0.9999999999999999, 0, 0, 0.9999999999999999, -7.105427357601002e-15, -1.4210854715202004e-14)"/>
  <path d="M 130.635 170.604 L 133.538 202.541 L 210.718 202.541 L 210.718 170.604 L 130.635 170.604 Z" fill="#EBEBEB" transform="matrix(0.9999999999999999, 0, 0, 0.9999999999999999, -7.105427357601002e-15, -1.4210854715202004e-14)"/>
  <path d="M 210.718 318.189 L 210.578 318.227 L 175.01 308.622 L 172.736 283.151 L 140.676 283.151 L 145.15 333.297 L 210.571 351.458 L 210.718 351.417 L 210.718 318.189 Z" fill="#EBEBEB" transform="matrix(0.9999999999999999, 0, 0, 0.9999999999999999, -7.105427357601002e-15, -1.4210854715202004e-14)"/>
  <path d="M 284.845 235.245 L 290.61 170.604 L 210.608 170.604 L 210.608 202.541 L 255.61 202.541 L 252.704 235.245 L 210.608 235.245 L 210.608 267.182 L 249.935 267.182 L 246.228 308.602 L 210.608 318.216 L 210.608 351.443 L 276.08 333.297 L 276.561 327.901 L 284.066 243.821 L 284.845 235.245 Z" fill="#FFFFFF" transform="matrix(0.9999999999999999, 0, 0, 0.9999999999999999, -7.105427357601002e-15, -1.4210854715202004e-14)"/>
</svg>