<?xml version="1.0" encoding="utf-8"?>
<svg viewBox="0 0 153 152" xmlns="http://www.w3.org/2000/svg">
  <defs>
    <linearGradient gradientUnits="userSpaceOnUse" x1="59.886" y1="0.169" x2="59.886" y2="120.169" id="gradient-0" gradientTransform="matrix(0.708199, 0.706012, -0.841667, 0.841667, 65.730675, -33.422722)">
      <stop offset="0" style="stop-color: rgb(66, 175, 136);"/>
      <stop offset="1" style="stop-color: rgb(20, 53, 41);"/>
    </linearGradient>
    <linearGradient gradientUnits="userSpaceOnUse" x1="85.886" y1="26.169" x2="85.886" y2="146.169" id="gradient-1" gradientTransform="matrix(0.749172, 0.662375, -0.783333, 0.891667, 94.155999, -45.222593)">
      <stop offset="0" style="stop-color: rgb(32, 21, 96);"/>
      <stop offset="1" style="stop-color: rgb(81, 54, 246);"/>
    </linearGradient>
  </defs>
  <path style="stroke-width: 18px; fill: none;" d="M 52 61 L 111 61 L 111 96 L 97 111 L 24 111 L 9 96 L 9 24 L 24 9 L 120 9" transform="matrix(1, 0, 0, 1, -3.552713678800501e-15, 0)"/>
  <path d="M 60 66 L 120 66 L 120 120 L 20 120 L 0 99.728 L 0 20.272 L 20.272 0 L 96 0 L 120 21 L 29.728 21 L 21 30.728 L 21 88.272 L 32 99 L 99 99 L 99 84 L 60 84 L 60 66 Z" style="fill: url('#gradient-0'); stroke-width: 3px;" transform="matrix(1, 0, 0, 1, -3.552713678800501e-15, 0)"/>
  <path style="stroke-width: 18px; fill: none;" d="M 129 87 L 129 122 L 115 137 L 42 137 L 27 122 L 27 50 L 42 35 L 138 35" transform="matrix(-1, 0, 0, -1, 165.000015, 171.999985)"/>
  <path d="M 153 100 L 153 151 L 53.272 152 L 33 131.728 L 33 52.272 L 53.272 32 L 130 32 L 152 53 L 63.728 53 L 54 62.728 L 54 121 L 63 130 L 132 130 L 132 100 L 153 100 Z" style="fill: url('#gradient-1'); stroke-width: 3px;" transform="matrix(-1, 0, 0, -1, 186, 184.00001525878906)"/>
  <path d="M 26 77 L 98 77 L 98 96.175 L 26 96.175 L 26 77 Z" style="fill: none;" transform="matrix(1, 0, 0, 1, -3.552713678800501e-15, 0)"/>
  <path d="M 98.5 76.5 L 98.5 96.675 L 25.5 96.675 L 25.5 76.5 L 98.5 76.5 Z M 26.5 95.675 L 97.5 95.675 L 97.5 77.5 L 26.5 77.5 L 26.5 95.675 Z" style="fill: none;" transform="matrix(1, 0, 0, 1, -3.552713678800501e-15, 0)"/>
  <path d="M 99 97.175 L 25 97.175 L 25 76 L 99 76 L 99 97.175 Z M 27 95.175 L 97 95.175 L 97 78 L 27 78 L 27 95.175 Z" style="fill: none;" transform="matrix(1, 0, 0, 1, -3.552713678800501e-15, 0)"/>
</svg>