<?xml version="1.0" encoding="utf-8"?>
<svg viewBox="81.922 95.488 255.109 289.322" xmlns="http://www.w3.org/2000/svg">
  <path d="M 337.031 95.488 L 313.79 355.847 L 209.32 384.81 L 105.138 355.888 L 81.922 95.488 L 337.031 95.488 Z" fill="#E44D26" transform="matrix(0.9999999999999999, 0, 0, 0.9999999999999999, -7.105427357601002e-15, -1.4210854715202004e-14)"/>
  <path d="M 209.476 362.672 L 293.893 339.269 L 313.754 116.779 L 209.476 116.779 L 209.476 362.672 Z" fill="#F16529" transform="matrix(0.9999999999999999, 0, 0, 0.9999999999999999, -7.105427357601002e-15, -1.4210854715202004e-14)"/>
  <path d="M 164.297 180.654 L 209.476 180.654 L 209.476 148.717 L 129.393 148.717 L 130.158 157.285 L 138.007 245.295 L 209.476 245.295 L 209.476 213.358 L 167.215 213.358 L 164.297 180.654 Z" fill="#EBEBEB" transform="matrix(0.9999999999999999, 0, 0, 0.9999999999999999, -7.105427357601002e-15, -1.4210854715202004e-14)"/>
  <path d="M 171.494 261.264 L 139.434 261.264 L 143.909 311.41 L 209.329 329.571 L 209.476 329.53 L 209.476 296.302 L 209.336 296.339 L 173.768 286.735 L 171.494 261.264 Z" fill="#EBEBEB" transform="matrix(0.9999999999999999, 0, 0, 0.9999999999999999, -7.105427357601002e-15, -1.4210854715202004e-14)"/>
  <path d="M 209.366 245.295 L 248.693 245.295 L 244.986 286.715 L 209.366 296.329 L 209.366 329.555 L 274.839 311.41 L 275.319 306.014 L 282.824 221.934 L 283.603 213.358 L 209.366 213.358 L 209.366 245.295 Z" fill="#FFFFFF" transform="matrix(0.9999999999999999, 0, 0, 0.9999999999999999, -7.105427357601002e-15, -1.4210854715202004e-14)"/>
  <path d="M 209.366 180.576 L 209.366 180.654 L 286.509 180.654 L 287.15 173.475 L 288.605 157.285 L 289.369 148.717 L 209.366 148.717 L 209.366 180.576 Z" fill="#FFFFFF" transform="matrix(0.9999999999999999, 0, 0, 0.9999999999999999, -7.105427357601002e-15, -1.4210854715202004e-14)"/>
</svg>